<svg width="37.000000" height="37.000000" viewBox="0 0 37 37" fill="none" xmlns="http://www.w3.org/2000/svg" xmlns:xlink="http://www.w3.org/1999/xlink">
	<desc>
			Created with Pixso.
	</desc>
	<defs/>
	<rect id="Frame 11" rx="18.000000" width="36.000000" height="36.000000" transform="translate(0.500000 0.500000)" fill="#F53838" fill-opacity="0.100000"/>
	<rect id="vuesax/bold/hierarchy-square-2" rx="0.000000" width="23.000000" height="23.000000" transform="translate(7.000000 7.000000)" fill="#FFFFFF" fill-opacity="0"/>
	<g opacity="0.000000"/>
	<path id="Vector" d="M22.69 8.5L14.31 8.5C10.67 8.5 8.5 10.67 8.5 14.31L8.5 22.68C8.5 26.33 10.67 28.5 14.31 28.5L22.68 28.5C26.32 28.5 28.49 26.33 28.49 22.69L28.49 14.31C28.5 10.67 26.33 8.5 22.69 8.5ZM22.7 24.75C21.57 24.75 20.65 23.83 20.65 22.7C20.65 22.04 20.97 21.46 21.46 21.08C21.04 19.98 19.99 19.21 18.81 19.26L16.75 19.27L16.74 19.27C16.12 19.27 15.55 19.09 15.06 18.78L15.06 20.8C15.82 21.1 16.36 21.84 16.36 22.7C16.36 23.83 15.44 24.75 14.31 24.75C13.18 24.75 12.26 23.83 12.26 22.7C12.26 21.83 12.8 21.1 13.56 20.8L13.56 16.45C12.8 16.1 12.26 15.34 12.26 14.45C12.26 13.24 13.25 12.25 14.46 12.25C15.67 12.25 16.66 13.24 16.66 14.45C16.66 15.43 16.01 16.25 15.12 16.54C15.32 17.27 15.98 17.78 16.74 17.78C16.74 17.78 16.74 17.78 16.75 17.78L18.81 17.77C18.82 17.77 18.82 17.77 18.83 17.77C20.67 17.77 22.32 18.94 22.92 20.68C23.95 20.79 24.76 21.65 24.76 22.71C24.75 23.83 23.83 24.75 22.7 24.75Z" fill="#F53838" fill-opacity="1.000000" fill-rule="nonzero"/>
</svg>
