<svg width="37.000000" height="37.000000" viewBox="0 0 37 37" fill="none" xmlns="http://www.w3.org/2000/svg" xmlns:xlink="http://www.w3.org/1999/xlink">
	<desc>
			Created with Pixso.
	</desc>
	<defs/>
	<rect id="Frame 11" rx="18.000000" width="36.000000" height="36.000000" transform="translate(0.500000 0.500000)" fill="#F53838" fill-opacity="0.100000"/>
	<rect id="vuesax/bold/user" rx="0.000000" width="23.000000" height="23.000000" transform="translate(7.000000 7.000000)" fill="#FFFFFF" fill-opacity="0"/>
	<g opacity="0.000000"/>
	<path id="Vector" d="M23.5 13.5C23.5 16.26 21.26 18.5 18.5 18.5C15.73 18.5 13.5 16.26 13.5 13.5C13.5 10.73 15.73 8.5 18.5 8.5C21.26 8.5 23.5 10.73 23.5 13.5Z" fill="#F53838" fill-opacity="1.000000" fill-rule="evenodd"/>
	<path id="Vector" d="M18.5 21C13.49 21 9.41 24.36 9.41 28.5C9.41 28.78 9.63 29 9.91 29L27.09 29C27.37 29 27.59 28.78 27.59 28.5C27.59 24.36 23.51 21 18.5 21Z" fill="#F53838" fill-opacity="1.000000" fill-rule="nonzero"/>
</svg>
