<svg width="37.500000" height="37.500000" viewBox="0 0 37.5 37.5" fill="none" xmlns="http://www.w3.org/2000/svg" xmlns:xlink="http://www.w3.org/1999/xlink">
	<desc>
			Created with Pixso.
	</desc>
	<defs/>
	<path id="Vector" d="M18.75 37.5C29.08 37.5 37.5 29.08 37.5 18.75C37.5 8.41 29.08 0 18.75 0C8.41 0 0 8.41 0 18.75C0 29.08 8.41 37.5 18.75 37.5ZM13.51 17.75L20.13 11.13C20.41 10.85 20.77 10.72 21.13 10.72C21.48 10.72 21.84 10.85 22.12 11.13C22.66 11.68 22.66 12.58 22.12 13.12L16.5 18.75L22.12 24.37C22.66 24.91 22.66 25.81 22.12 26.36C21.58 26.9 20.68 26.9 20.13 26.36L13.51 19.74C12.95 19.2 12.95 18.29 13.51 17.75Z" fill="#D1D1D1" fill-opacity="1.000000" fill-rule="nonzero"/>
</svg>
