<svg width="37.500000" height="37.500000" viewBox="0 0 37.5 37.5" fill="none" xmlns="http://www.w3.org/2000/svg" xmlns:xlink="http://www.w3.org/1999/xlink">
	<desc>
			Created with Pixso.
	</desc>
	<defs/>
	<path id="Vector" d="M18.75 0C8.41 0 0 8.41 0 18.75C0 29.08 8.41 37.5 18.75 37.5C29.08 37.5 37.5 29.08 37.5 18.75C37.5 8.41 29.08 0 18.75 0ZM23.98 19.74L17.36 26.36C17.08 26.64 16.72 26.77 16.36 26.77C16.01 26.77 15.65 26.64 15.37 26.36C14.83 25.81 14.83 24.91 15.37 24.37L21 18.75L15.37 13.12C14.83 12.58 14.83 11.68 15.37 11.13C15.91 10.59 16.81 10.59 17.36 11.13L23.98 17.75C24.54 18.29 24.54 19.2 23.98 19.74Z" fill="#F53838" fill-opacity="1.000000" fill-rule="nonzero"/>
</svg>
