<svg width="37.000000" height="37.000000" viewBox="0 0 37 37" fill="none" xmlns="http://www.w3.org/2000/svg" xmlns:xlink="http://www.w3.org/1999/xlink">
	<desc>
			Created with Pixso.
	</desc>
	<defs/>
	<rect id="Frame 76" rx="18.000000" width="36.000000" height="36.000000" transform="translate(0.500000 0.500000)" fill="#F53838" fill-opacity="0.100000"/>
	<rect id="vuesax/bold/youtube" rx="0.000000" width="23.000000" height="23.000000" transform="translate(7.000000 7.000000)" fill="#FFFFFF" fill-opacity="0"/>
	<g opacity="0.580000"/>
	<path id="Vector" d="M23.5 10.5L13.5 10.5C10.5 10.5 8.5 12.5 8.5 15.5L8.5 21.5C8.5 24.5 10.5 26.5 13.5 26.5L23.5 26.5C26.5 26.5 28.5 24.5 28.5 21.5L28.5 15.5C28.5 12.5 26.5 10.5 23.5 10.5ZM20.39 19.53L17.92 21.01C16.92 21.61 16.1 21.14 16.1 19.98L16.1 17.01C16.1 15.84 16.92 15.38 17.92 15.98L20.39 17.45C21.34 18.04 21.34 18.95 20.39 19.53Z" fill="#F53838" fill-opacity="1.000000" fill-rule="nonzero"/>
	<g opacity="0.000000"/>
</svg>
