<svg width="37.000000" height="37.000000" viewBox="0 0 37 37" fill="none" xmlns="http://www.w3.org/2000/svg" xmlns:xlink="http://www.w3.org/1999/xlink">
	<desc>
			Created with Pixso.
	</desc>
	<defs/>
	<rect id="Frame 75" rx="18.000000" width="36.000000" height="36.000000" transform="translate(0.500000 0.500000)" fill="#F53838" fill-opacity="0.100000"/>
	<rect id="vuesax/bold/whatsapp" rx="0.000000" width="23.000000" height="23.000000" transform="translate(7.000000 7.000000)" fill="#FFFFFF" fill-opacity="0"/>
	<g opacity="0.580000"/>
	<path id="Vector" d="M28.48 17.9C28.14 12.1 22.87 7.63 16.79 8.63C12.62 9.33 9.26 12.72 8.62 16.89C8.23 19.31 8.74 21.6 9.83 23.5L8.93 26.81C8.73 27.56 9.42 28.24 10.17 28.03L13.43 27.12C14.91 28 16.64 28.5 18.49 28.5C24.13 28.5 28.81 23.53 28.48 17.9ZM23.38 22.22C23.29 22.39 23.18 22.57 23.04 22.73C22.79 23 22.52 23.2 22.22 23.32C21.92 23.45 21.59 23.51 21.24 23.51C20.73 23.51 20.18 23.38 19.61 23.13C19.03 22.88 18.45 22.56 17.89 22.14C17.31 21.73 16.77 21.26 16.25 20.75C15.73 20.23 15.27 19.67 14.85 19.1C14.44 18.54 14.11 17.96 13.87 17.39C13.63 16.82 13.51 16.28 13.51 15.76C13.51 15.41 13.57 15.08 13.69 14.79C13.81 14.48 14 14.2 14.27 13.95C14.59 13.62 14.94 13.48 15.31 13.48C15.45 13.48 15.59 13.51 15.72 13.57C15.85 13.62 15.97 13.72 16.06 13.84L17.21 15.49C17.31 15.61 17.37 15.73 17.42 15.83C17.46 15.95 17.49 16.04 17.49 16.14C17.49 16.27 17.45 16.38 17.37 16.51C17.31 16.62 17.21 16.75 17.1 16.86L16.71 17.27C16.66 17.32 16.64 17.38 16.64 17.46C16.64 17.51 16.65 17.54 16.66 17.58C16.68 17.62 16.69 17.65 16.7 17.68C16.79 17.85 16.95 18.06 17.17 18.32C17.4 18.58 17.64 18.85 17.9 19.11C18.17 19.38 18.43 19.62 18.7 19.85C18.95 20.07 19.18 20.23 19.35 20.32C19.37 20.32 19.41 20.34 19.44 20.35C19.48 20.37 19.52 20.37 19.57 20.37C19.66 20.37 19.71 20.34 19.78 20.29L20.16 19.9C20.29 19.78 20.41 19.68 20.52 19.62C20.64 19.56 20.75 19.52 20.88 19.52C20.98 19.52 21.08 19.54 21.19 19.58C21.3 19.63 21.42 19.7 21.54 19.79L23.2 20.97C23.33 21.06 23.42 21.16 23.48 21.29C23.53 21.41 23.56 21.54 23.56 21.67C23.5 21.84 23.46 22.04 23.38 22.22Z" fill="#F53838" fill-opacity="1.000000" fill-rule="nonzero"/>
	<g opacity="0.000000"/>
</svg>
