<svg width="37.000000" height="37.000000" viewBox="0 0 37 37" fill="none" xmlns="http://www.w3.org/2000/svg" xmlns:xlink="http://www.w3.org/1999/xlink">
	<desc>
			Created with Pixso.
	</desc>
	<defs/>
	<rect id="Frame 11" rx="18.000000" width="36.000000" height="36.000000" transform="translate(0.500000 0.500000)" fill="#F53838" fill-opacity="0.100000"/>
	<g opacity="0.580000"/>
	<path id="Vector" d="M28.5 22.68C28.5 26.33 26.33 28.5 22.69 28.5L21.5 28.5C20.95 28.5 20.5 28.05 20.5 27.5L20.5 21.73C20.5 21.46 20.72 21.23 20.99 21.23L22.75 21.2C22.89 21.18 23.01 21.09 23.04 20.95L23.39 19.04C23.42 18.86 23.28 18.68 23.09 18.68L20.96 18.71C20.68 18.71 20.45 18.5 20.45 18.23L20.41 15.78C20.41 15.62 20.54 15.48 20.71 15.48L23.11 15.43C23.28 15.43 23.41 15.31 23.41 15.14L23.37 12.74C23.37 12.57 23.24 12.43 23.07 12.43L20.37 12.48C18.7 12.51 17.39 13.87 17.42 15.53L17.46 18.28C17.48 18.56 17.26 18.78 16.98 18.79L15.78 18.81C15.61 18.81 15.48 18.93 15.48 19.1L15.51 21.01C15.51 21.17 15.64 21.31 15.81 21.31L17.01 21.29C17.29 21.29 17.51 21.51 17.52 21.78L17.61 27.48C17.62 28.04 17.17 28.5 16.61 28.5L14.31 28.5C10.67 28.5 8.5 26.33 8.5 22.67L8.5 14.31C8.5 10.66 10.67 8.5 14.31 8.5L22.69 8.5C26.33 8.5 28.5 10.66 28.5 14.31L28.5 22.68Z" fill="#F53838" fill-opacity="1.000000" fill-rule="nonzero"/>
	<g opacity="0.000000"/>
</svg>
