<svg width="24.000000" height="24.000000" viewBox="0 0 24 24" fill="none" xmlns="http://www.w3.org/2000/svg" xmlns:xlink="http://www.w3.org/1999/xlink">
	<desc>
			Created with Pixso.
	</desc>
	<defs/>
	<path d="M12 2C6.49 2 2 6.48 2 12C2 17.51 6.49 22 12 22C17.51 22 22 17.51 22 12C22 6.48 17.51 2 12 2ZM16.78 9.7L11.11 15.37C10.97 15.51 10.78 15.59 10.58 15.59C10.38 15.59 10.18 15.51 10.05 15.37L7.22 12.54C6.92 12.25 6.92 11.77 7.22 11.48C7.5 11.19 7.99 11.19 8.28 11.48L10.58 13.78L15.72 8.64C16.01 8.35 16.49 8.35 16.78 8.64C17.07 8.92 17.07 9.39 16.78 9.7Z" fill="#2BBC28" fill-opacity="1.000000" fill-rule="nonzero"/>
	<g opacity="0.000000"/>
</svg>
