<svg width="126.000000" height="24.000000" viewBox="0 0 126 24" fill="none" xmlns="http://www.w3.org/2000/svg" xmlns:xlink="http://www.w3.org/1999/xlink">
	<desc>
			Created with Pixso.
	</desc>
	<defs>
		<clipPath id="clip4_514">
			<rect id="svg" width="126.000000" height="24.000000" fill="white" fill-opacity="0"/>
		</clipPath>
	</defs>
	<g clip-path="url(#clip4_514)">
		<rect id="vuesax/bold/eos-(eos)" x="0.500000" y="0.500000" width="23.000000" height="23.000000" fill="#FFFFFF" fill-opacity="0"/>
		<path id="Vector" d="M9.27 20.31C9.45 20.79 8.92 21.23 8.48 20.97L5.33 19.18C4.77 18.85 4.41 18.06 4.53 17.42L5.47 12.75C5.59 12.2 6.35 12.15 6.53 12.67L9.27 20.31Z" fill="#F53838" fill-opacity="1.000000" fill-rule="nonzero"/>
		<path id="Vector" d="M18.66 19.18L15.5 20.98C15.06 21.23 14.54 20.8 14.71 20.32L17.45 12.61C17.65 12.09 18.41 12.14 18.52 12.69L19.45 17.42C19.58 18.06 19.23 18.85 18.66 19.18Z" fill="#F53838" fill-opacity="1.000000" fill-rule="nonzero"/>
		<path id="Vector" d="M17.08 7.32C17.32 7.62 17.39 8.02 17.26 8.38L12.52 21.63C12.35 22.12 11.66 22.12 11.49 21.63L6.75 8.39C6.62 8.03 6.69 7.63 6.92 7.33L10.75 2.63C11.44 1.8 12.58 1.8 13.28 2.63L17.08 7.32Z" fill="#F53838" fill-opacity="1.000000" fill-rule="nonzero"/>
		<g opacity="0.000000"/>
		<path id="LaslesVPN" d="M65.8 17.95C65.86 17.98 65.93 18 66.01 18L66.86 18C66.96 18 67.05 17.96 67.12 17.91C67.14 17.89 67.19 17.83 67.21 17.79C67.25 17.74 67.26 17.66 67.26 17.58L67.26 5.63C67.26 5.54 67.25 5.46 67.21 5.39C67.19 5.38 67.12 5.3 67.11 5.29C67.05 5.24 66.96 5.22 66.86 5.22L66.01 5.22C65.93 5.22 65.87 5.23 65.81 5.26C65.78 5.28 65.66 5.38 65.65 5.41C65.61 5.47 65.58 5.54 65.58 5.63L65.58 17.58C65.58 17.66 65.6 17.73 65.64 17.79C65.66 17.82 65.77 17.92 65.8 17.95ZM36.71 17.92C36.77 17.97 36.86 18 36.98 18L44.32 18C44.42 18 44.51 17.97 44.59 17.92C44.62 17.89 44.69 17.82 44.71 17.78C44.73 17.71 44.75 17.65 44.75 17.58L44.75 16.86C44.75 16.76 44.72 16.67 44.68 16.6C44.66 16.58 44.6 16.51 44.58 16.5C44.51 16.45 44.42 16.43 44.32 16.43L38.34 16.43L38.34 5.81C38.34 5.73 38.32 5.66 38.29 5.6C38.25 5.57 38.16 5.46 38.14 5.45C38.08 5.41 38 5.39 37.93 5.39L36.98 5.39C36.87 5.39 36.78 5.42 36.72 5.47C36.7 5.49 36.63 5.56 36.62 5.57C36.58 5.64 36.56 5.72 36.56 5.81L36.56 17.58C36.56 17.66 36.57 17.74 36.61 17.79C36.63 17.83 36.68 17.9 36.71 17.92ZM47.53 17.86C47.99 18.07 48.51 18.18 49.07 18.18C49.65 18.18 50.13 18.11 50.53 17.96C50.92 17.83 51.25 17.65 51.52 17.45C51.78 17.23 51.99 17.02 52.15 16.81L52.15 17.58C52.15 17.66 52.16 17.74 52.2 17.79C52.2 17.81 52.28 17.9 52.3 17.92C52.36 17.97 52.45 18 52.56 18L53.39 18C53.47 18 53.54 17.98 53.61 17.94C53.63 17.91 53.74 17.82 53.76 17.78C53.78 17.71 53.8 17.65 53.8 17.58L53.8 11.75C53.8 11.59 53.79 11.44 53.78 11.29C53.74 11.03 53.69 10.78 53.61 10.54C53.55 10.36 53.48 10.2 53.4 10.04C53.29 9.84 53.16 9.65 53 9.48C52.72 9.16 52.33 8.92 51.84 8.73C51.35 8.54 50.74 8.45 50.02 8.45C49.37 8.45 48.82 8.54 48.38 8.72C47.92 8.89 47.55 9.1 47.27 9.36C46.98 9.6 46.77 9.86 46.63 10.13C46.49 10.39 46.43 10.61 46.43 10.8C46.43 10.86 46.44 10.91 46.46 10.97C46.47 10.99 46.54 11.1 46.56 11.11C46.62 11.16 46.71 11.19 46.82 11.19L47.63 11.19C47.71 11.19 47.78 11.17 47.84 11.14C47.91 11.09 47.97 11.02 48.01 10.92C48.03 10.84 48.07 10.77 48.11 10.71C48.24 10.47 48.44 10.26 48.71 10.09C49.05 9.87 49.48 9.76 50.01 9.76C50.75 9.76 51.28 9.93 51.62 10.26C51.66 10.3 51.71 10.36 51.76 10.42C51.99 10.72 52.11 11.12 52.11 11.61L52.11 12.13L49.43 12.51C48.35 12.66 47.47 12.98 46.8 13.48C46.46 13.72 46.2 14.02 46.04 14.36C45.88 14.68 45.8 15.05 45.8 15.46C45.8 15.75 45.84 16.02 45.94 16.28C46.01 16.48 46.11 16.66 46.25 16.84C46.29 16.9 46.34 16.96 46.39 17.03C46.67 17.35 47.11 17.66 47.53 17.86ZM57.91 17.92C58.39 18.09 58.96 18.18 59.64 18.18C60.48 18.18 61.18 18.05 61.76 17.81C62.33 17.56 62.76 17.23 63.05 16.81C63.21 16.57 63.32 16.33 63.4 16.08C63.46 15.86 63.49 15.64 63.49 15.42C63.49 14.97 63.39 14.57 63.21 14.23C63.01 13.87 62.68 13.56 62.23 13.3C61.77 13.03 61.15 12.82 60.36 12.67C59.62 12.49 59.07 12.34 58.7 12.2C58.32 12.05 58.07 11.89 57.94 11.72C57.88 11.63 57.83 11.54 57.8 11.45C57.76 11.34 57.75 11.22 57.75 11.1C57.75 10.92 57.78 10.75 57.85 10.6C57.92 10.43 58.03 10.28 58.19 10.14C58.49 9.89 58.95 9.76 59.55 9.76C59.97 9.76 60.3 9.82 60.56 9.92C60.82 10.02 61.03 10.15 61.19 10.31C61.35 10.46 61.5 10.62 61.62 10.78C61.66 10.82 61.71 10.86 61.77 10.9C61.82 10.94 61.89 10.96 61.98 10.96L62.73 10.96C62.78 10.96 62.83 10.95 62.87 10.93C62.92 10.91 62.97 10.88 63.02 10.84C63.06 10.8 63.08 10.76 63.1 10.72C63.12 10.66 63.13 10.6 63.13 10.54C63.11 10.38 63.04 10.19 62.9 9.97C62.75 9.73 62.53 9.5 62.25 9.28C61.96 9.04 61.59 8.84 61.15 8.68C60.7 8.53 60.17 8.45 59.55 8.45C58.78 8.45 58.14 8.58 57.63 8.85C57.12 9.11 56.73 9.45 56.47 9.87C56.25 10.19 56.13 10.53 56.09 10.89C56.07 10.97 56.07 11.06 56.07 11.16C56.07 11.56 56.15 11.93 56.32 12.27C56.5 12.61 56.82 12.95 57.24 13.2C57.66 13.44 58.23 13.65 58.95 13.82C59.67 13.97 60.23 14.12 60.65 14.27C61.06 14.41 61.35 14.57 61.52 14.76C61.64 14.93 61.76 15.21 61.76 15.48C61.76 15.7 61.71 15.89 61.62 16.06C61.52 16.24 61.36 16.39 61.16 16.51C60.76 16.74 60.26 16.86 59.65 16.86C59.23 16.86 58.88 16.8 58.6 16.7C58.32 16.59 58.08 16.45 57.89 16.29C57.7 16.12 57.53 15.95 57.37 15.78C57.29 15.7 57.24 15.65 57.2 15.63C57.15 15.61 57.1 15.6 57.05 15.6L56.23 15.6C56.13 15.6 56.04 15.63 55.94 15.71C55.9 15.77 55.81 15.93 55.82 16.01C55.83 16.15 55.91 16.35 56.06 16.59C56.21 16.83 56.44 17.07 56.74 17.31C57.04 17.54 57.43 17.75 57.91 17.92ZM71.29 17.51C71.94 17.95 72.74 18.18 73.69 18.18C74.3 18.18 74.85 18.09 75.33 17.93C75.82 17.77 76.23 17.56 76.56 17.31C76.89 17.05 77.15 16.79 77.33 16.54C77.51 16.28 77.6 16.07 77.62 15.89C77.62 15.81 77.61 15.74 77.58 15.68C77.55 15.66 77.46 15.57 77.43 15.55C77.37 15.52 77.3 15.51 77.24 15.51L76.36 15.51C76.22 15.51 76.12 15.52 76.07 15.56C76.01 15.58 75.92 15.67 75.82 15.82C75.76 15.91 75.64 16.04 75.46 16.2C75.28 16.37 75.04 16.51 74.75 16.65C74.46 16.77 74.1 16.84 73.68 16.84C73.32 16.84 72.99 16.77 72.69 16.64C72.59 16.58 72.49 16.52 72.39 16.45C72.25 16.35 72.12 16.24 72.01 16.12C71.82 15.92 71.67 15.68 71.55 15.42C71.52 15.36 71.5 15.3 71.48 15.24C71.33 14.86 71.25 14.46 71.23 14.04L71.23 13.87L77.46 13.87C77.54 13.87 77.62 13.85 77.69 13.81C77.74 13.74 77.87 13.56 77.87 13.46L77.87 13.15C77.87 12.2 77.7 11.37 77.37 10.67C77.15 10.17 76.85 9.76 76.49 9.42C76.33 9.27 76.15 9.14 75.97 9.03C75.35 8.64 74.58 8.45 73.68 8.45C72.86 8.45 72.14 8.62 71.54 8.98C71.33 9.1 71.14 9.23 70.97 9.39C70.62 9.68 70.34 10.04 70.11 10.46C69.76 11.1 69.56 11.85 69.51 12.7C69.5 12.86 69.5 13.06 69.5 13.31C69.5 13.55 69.5 13.75 69.51 13.91C69.58 15.13 69.93 16.11 70.56 16.85C70.61 16.91 70.66 16.96 70.72 17.03C70.9 17.21 71.08 17.37 71.29 17.51ZM81.54 17.92C82.02 18.09 82.59 18.18 83.27 18.18C84.11 18.18 84.81 18.05 85.39 17.81C85.97 17.56 86.4 17.23 86.69 16.81C86.85 16.57 86.96 16.33 87.03 16.08C87.09 15.86 87.12 15.64 87.12 15.42C87.12 14.97 87.02 14.57 86.84 14.23C86.65 13.87 86.32 13.56 85.86 13.3C85.4 13.03 84.78 12.82 83.99 12.67C83.25 12.49 82.7 12.34 82.33 12.2C81.96 12.05 81.71 11.89 81.58 11.72C81.51 11.63 81.47 11.54 81.44 11.45C81.4 11.34 81.37 11.22 81.37 11.1C81.37 10.92 81.41 10.75 81.48 10.6C81.55 10.43 81.67 10.28 81.83 10.14C82.13 9.89 82.58 9.76 83.18 9.76C83.6 9.76 83.94 9.82 84.2 9.92C84.45 10.02 84.66 10.15 84.83 10.31C84.99 10.46 85.13 10.62 85.25 10.78C85.29 10.82 85.34 10.86 85.4 10.9C85.45 10.94 85.52 10.96 85.61 10.96L86.37 10.96C86.41 10.96 86.46 10.95 86.5 10.93C86.55 10.91 86.6 10.88 86.65 10.84C86.69 10.8 86.72 10.76 86.74 10.72C86.76 10.66 86.76 10.6 86.76 10.54C86.75 10.38 86.67 10.19 86.53 9.97C86.38 9.73 86.16 9.5 85.88 9.28C85.59 9.04 85.22 8.84 84.78 8.68C84.34 8.53 83.8 8.45 83.18 8.45C82.41 8.45 81.77 8.58 81.26 8.85C80.75 9.11 80.36 9.45 80.1 9.87C79.89 10.19 79.76 10.53 79.72 10.89C79.71 10.97 79.71 11.06 79.71 11.16C79.71 11.56 79.79 11.93 79.94 12.27C80.13 12.61 80.45 12.95 80.87 13.2C81.29 13.44 81.87 13.65 82.59 13.82C83.3 13.97 83.86 14.12 84.28 14.27C84.7 14.41 84.99 14.57 85.15 14.76C85.28 14.93 85.4 15.21 85.4 15.48C85.4 15.7 85.35 15.89 85.26 16.06C85.16 16.24 85 16.39 84.8 16.51C84.4 16.74 83.9 16.86 83.29 16.86C82.87 16.86 82.52 16.8 82.24 16.7C81.95 16.59 81.71 16.45 81.51 16.29C81.33 16.12 81.16 15.95 81 15.78C80.93 15.7 80.87 15.65 80.83 15.63C80.79 15.61 80.74 15.6 80.68 15.6L79.87 15.6C79.76 15.6 79.67 15.63 79.58 15.71C79.54 15.77 79.44 15.93 79.44 16.01C79.46 16.15 79.54 16.35 79.69 16.59C79.85 16.83 80.07 17.07 80.37 17.31C80.67 17.54 81.06 17.75 81.54 17.92ZM76.16 12.63L71.23 12.63C71.23 12.09 71.32 11.56 71.51 11.14C71.64 10.86 71.81 10.61 72.01 10.41C72.12 10.31 72.23 10.22 72.35 10.14C72.7 9.92 73.19 9.76 73.68 9.76C74.14 9.76 74.55 9.87 74.91 10.08C75.04 10.16 75.26 10.32 75.37 10.44C75.57 10.63 75.73 10.86 75.86 11.14C76.06 11.56 76.16 12.09 76.16 12.63ZM50.56 16.62C50.22 16.76 49.85 16.83 49.45 16.83C49.27 16.83 49.09 16.81 48.92 16.78C48.78 16.75 48.64 16.71 48.5 16.66C48.25 16.57 48.04 16.44 47.86 16.28C47.82 16.24 47.78 16.2 47.75 16.17C47.69 16.1 47.64 16.03 47.6 15.96C47.5 15.78 47.45 15.57 47.45 15.33C47.45 15.19 47.47 15.06 47.51 14.94C47.6 14.68 47.8 14.45 48.1 14.26C48.53 13.98 49.17 13.78 50.02 13.66L52.11 13.35L52.11 13.86C52.11 14.52 51.99 15.08 51.76 15.53C51.59 15.84 51.38 16.1 51.13 16.29C51.02 16.37 50.91 16.45 50.8 16.51C50.72 16.54 50.64 16.58 50.56 16.62Z" fill="#151515" fill-opacity="1.000000" fill-rule="evenodd"/>
		<path id="LaslesVPN" d="M92.43 17.87C92.53 17.95 92.67 18 92.84 18L95.2 18C95.4 18 95.56 17.94 95.68 17.84C95.75 17.78 95.81 17.7 95.85 17.62C95.87 17.58 95.89 17.53 95.91 17.46L99.69 5.94C99.69 5.87 99.7 5.81 99.7 5.76C99.68 5.7 99.64 5.56 99.59 5.5C99.56 5.47 99.52 5.44 99.48 5.42C99.43 5.41 99.38 5.39 99.33 5.39L97.44 5.39C97.28 5.39 97.16 5.43 97.07 5.5C96.97 5.6 96.86 5.74 96.83 5.82L94.04 14.63L91.23 5.82C91.2 5.74 91.14 5.64 91.04 5.54C90.94 5.48 90.76 5.39 90.62 5.39L88.73 5.39C88.67 5.39 88.62 5.41 88.58 5.42C88.53 5.44 88.49 5.47 88.45 5.5C88.4 5.56 88.37 5.62 88.36 5.67C88.36 5.72 88.35 5.87 88.37 5.94L92.15 17.46C92.17 17.53 92.19 17.59 92.23 17.65C92.27 17.71 92.36 17.81 92.43 17.87ZM101.7 17.93C101.77 17.97 101.86 18 101.96 18L104.01 18C104.11 18 104.19 17.97 104.26 17.93C104.28 17.9 104.38 17.81 104.4 17.78C104.44 17.71 104.46 17.63 104.46 17.54L104.46 13.48L106.87 13.48C107.84 13.48 108.68 13.33 109.4 13.05C109.91 12.83 110.34 12.54 110.7 12.18C110.83 12.04 110.95 11.88 111.07 11.72C111.47 11.12 111.67 10.37 111.67 9.45C111.67 8.56 111.47 7.81 111.07 7.2C110.94 7.01 110.8 6.84 110.65 6.67C110.3 6.33 109.88 6.05 109.4 5.85C108.68 5.54 107.84 5.39 106.87 5.39L101.96 5.39C101.86 5.39 101.78 5.41 101.71 5.45C101.68 5.48 101.58 5.57 101.57 5.6C101.53 5.66 101.51 5.74 101.51 5.84L101.51 17.54C101.51 17.63 101.52 17.71 101.56 17.79C101.58 17.81 101.67 17.9 101.7 17.93ZM113.71 17.93C113.78 17.97 113.86 18 113.96 18L115.78 18C115.87 18 115.95 17.98 116.02 17.94C116.05 17.91 116.16 17.81 116.18 17.78C116.21 17.71 116.23 17.63 116.23 17.54L116.23 10.4L121.02 17.67C121.05 17.7 121.11 17.77 121.19 17.86C121.27 17.95 121.4 18 121.58 18L123.23 18C123.31 18 123.39 17.98 123.46 17.94C123.5 17.89 123.63 17.76 123.66 17.7C123.67 17.65 123.68 17.6 123.68 17.54L123.68 5.84C123.68 5.75 123.66 5.67 123.62 5.6C123.59 5.58 123.49 5.47 123.47 5.44C123.4 5.41 123.32 5.39 123.23 5.39L121.39 5.39C121.33 5.39 121.27 5.41 121.23 5.42C121.17 5.44 121.13 5.47 121.09 5.51C121.04 5.58 120.96 5.74 120.96 5.84L120.96 13.23L116.16 5.72C116.13 5.67 116.07 5.6 115.99 5.51C115.91 5.44 115.78 5.39 115.6 5.39L113.96 5.39C113.86 5.39 113.78 5.41 113.72 5.45C113.7 5.48 113.59 5.57 113.57 5.6C113.53 5.66 113.51 5.74 113.51 5.84L113.51 17.54C113.51 17.63 113.53 17.71 113.57 17.79C113.59 17.81 113.69 17.9 113.71 17.93ZM106.78 11.25L104.41 11.25L104.41 7.64L106.78 7.64C107.46 7.64 107.96 7.81 108.26 8.14C108.33 8.22 108.39 8.31 108.45 8.38C108.63 8.68 108.73 9.03 108.73 9.43C108.73 9.96 108.6 10.37 108.34 10.67C108.3 10.71 108.25 10.76 108.21 10.8C107.87 11.1 107.39 11.25 106.78 11.25Z" fill="#101010" fill-opacity="1.000000" fill-rule="evenodd"/>
	</g>
</svg>
